<?xml version="1.0" encoding="utf-8"?>
<!-- Generator: Adobe Illustrator 26.0.2, SVG Export Plug-In . SVG Version: 6.00 Build 0)  -->
<svg version="1.1" id="svg-4509e195-ab8d-4bba-b6b4-45d5be9148fe"
	 xmlns="http://www.w3.org/2000/svg" xmlns:xlink="http://www.w3.org/1999/xlink" x="0px" y="0px" viewBox="0 0 607.9 160.3"
	 style="enable-background:new 0 0 607.9 160.3;" xml:space="preserve">
<style type="text/css">
	.st0{fill:none;stroke:#222222;stroke-width:3.8081;stroke-miterlimit:10;}
	.st1{fill:none;stroke:#000222;stroke-width:2.8701;stroke-miterlimit:10;}
	.st2{fill:none;stroke:#222222;stroke-width:5.7403;stroke-miterlimit:10;}
	.st3{fill:none;stroke:#000000;stroke-width:4;stroke-miterlimit:10;}
	.st4{stroke:#000000;stroke-width:4;stroke-miterlimit:10;}
</style>
<path class="st0" d="M526.1,153.9H17.5c-5.6,0-10.2-5-10.2-11.3v-125c0-6.2,4.5-11.3,10.2-11.3h572.5c5.6,0,10.2,5,10.2,11.3v54.5
	C600.2,117.3,567.1,153.9,526.1,153.9z"/>
<path class="st1" d="M56.3,122.5H80c1.6,0,3-1.3,3-3c0-1.6-1.3-3-3-3H56.3c-1.6,0-3,1.3-3,3C53.3,121.1,54.7,122.5,56.3,122.5"/>
<path class="st2" d="M40.1,28.3c-4.5,0.5-7.7,4.4-7.4,8.9v88.3c-0.4,4.5,2.9,8.4,7.4,8.9h56.1c4.5-0.5,7.7-4.4,7.4-8.9V37.2
	c0.4-4.5-2.9-8.4-7.4-8.9L40.1,28.3z"/>
<path d="M175.6,31.6c1.3,0,1.8,0.5,1.8,1.8V36c0,1.3-0.5,1.8-1.8,1.8h-12.8v40.2c0,1.3-0.4,1.8-1.8,1.8h-3c-1.4,0-1.8-0.5-1.8-1.8
	V37.7h-12.8c-1.4,0-1.8-0.5-1.8-1.8v-2.6c0-1.3,0.4-1.8,1.8-1.8H175.6z"/>
<path d="M212.3,31.6c1.4,0,1.8,0.5,1.8,1.8V36c0,1.3-0.4,1.8-1.8,1.8h-22.4v14.6h19.3c1.4,0,1.8,0.5,1.8,1.8v2.5
	c0,1.4-0.4,1.8-1.8,1.8h-19.3v15.2h23.2c1.4,0,1.8,0.5,1.8,1.8v2.6c0,1.3-0.4,1.8-1.8,1.8h-28c-1.3,0-1.8-0.5-1.8-1.8V33.4
	c0-1.3,0.5-1.8,1.8-1.8H212.3z"/>
<path d="M256.2,31.6c1.4,0,1.8,0.5,1.8,1.8v44.5c0,1.3-0.5,1.8-1.8,1.8h-3c-1.3,0-1.8-0.5-1.8-1.8V37.7h-17.1v10.6
	c0.2,12.4-1.6,20-3.7,24.2c-1.3,3-3.7,5-5.3,6.1c-0.8,0.5-1.9,1.2-3.2,1.8c-1.2,0.5-1.9,0.2-2.4-0.8l-1.4-2.6
	c-0.5-1.2-0.3-2,0.9-2.4c2.2-1.1,3-1.5,4.8-3.9c0.9-1.2,1.5-2.6,2-4.3c0.9-3.5,1.8-9.7,1.8-18V33.4c0-1.3,0.5-1.8,1.8-1.8H256.2z"/>
<path d="M296.2,31.6c1.4,0,1.8,0.5,1.8,1.8V36c0,1.3-0.4,1.8-1.8,1.8h-22.4v14.6h19.3c1.4,0,1.8,0.5,1.8,1.8v2.5
	c0,1.4-0.4,1.8-1.8,1.8h-19.3v15.2h23.2c1.4,0,1.8,0.5,1.8,1.8v2.6c0,1.3-0.4,1.8-1.8,1.8h-28c-1.3,0-1.8-0.5-1.8-1.8V33.4
	c0-1.3,0.5-1.8,1.8-1.8H296.2z"/>
<path d="M330.1,29.9c1.3,0,1.8,0.5,1.8,1.8v4h3.9c11.8,0,18.3,6.4,18.3,17.2v5.2c0,10.8-6.4,17.2-18.3,17.2h-3.9v4
	c0,1.3-0.5,1.8-1.8,1.8h-3c-1.4,0-1.8-0.5-1.8-1.8v-4h-3.9c-11.8,0-18.3-6.4-18.3-17.2v-5.2c0-10.8,6.4-17.2,18.3-17.2h3.9v-4
	c0-1.3,0.5-1.8,1.8-1.8H330.1z M321.4,41.6c-7.6,0-11.7,3.9-11.7,11v5.8c0,7.1,4.1,11,11.7,11h3.9V41.6H321.4z M347.5,52.6
	c0-7.1-4.1-11-11.7-11h-3.9v27.8h3.9c7.6,0,11.7-3.9,11.7-11V52.6z"/>
<path d="M360.3,47.9c0-10.8,6.8-17.3,18.9-17.3c12.1,0,19,6.5,19,17.3v15.4c0,10.8-6.8,17.3-19,17.3c-12.1,0-18.9-6.5-18.9-17.3
	V47.9z M391.7,47.9c0-7.2-4.5-11.2-12.4-11.2c-7.9,0-12.4,4-12.4,11.2v15.4c0,7.2,4.5,11.2,12.4,11.2c7.9,0,12.4-4,12.4-11.2V47.9z"
	/>
<path d="M441.3,31.6c1.4,0,1.8,0.5,1.8,1.8v44.5c0,1.3-0.4,1.8-1.8,1.8h-3c-1.4,0-1.8-0.5-1.8-1.8V58.4h-23.1v19.6
	c0,1.3-0.5,1.8-1.8,1.8h-3c-1.3,0-1.8-0.5-1.8-1.8V33.4c0-1.3,0.5-1.8,1.8-1.8h3c1.4,0,1.8,0.5,1.8,1.8v18.9h23.1V33.4
	c0-1.3,0.4-1.8,1.8-1.8H441.3z"/>
<g>
	<path d="M143.6,117.2c0-4.8,3.4-7.7,9-7.7c5.7,0,9,2.9,9,7.7v6.5c0,4.8-3.3,7.6-9,7.6c-5.6,0-9-2.9-9-7.6V117.2z M158,117.2
		c0-2.8-2-4.4-5.4-4.4c-3.4,0-5.4,1.6-5.4,4.4v6.6c0,2.8,2,4.4,5.4,4.4c3.4,0,5.4-1.6,5.4-4.4V117.2z"/>
	<path d="M182.2,110.1c0.7,0,1,0.2,1,1v18.7c0,0.8-0.3,1-1,1h-1.7c-0.7,0-1-0.2-1-1v-7.9h-10.1v7.9c0,0.8-0.2,1-1,1h-1.7
		c-0.6,0-1-0.3-1-1v-18.7c0-0.8,0.2-1,1-1h1.7c0.8,0,1,0.2,1,1v7.5h10.1v-7.5c0-0.8,0.3-1,1-1H182.2z"/>
	<path d="M204.1,110.1c0.7,0,1,0.2,1,1v18.7c0,0.8-0.3,1-1,1h-1.6c-0.8,0-1-0.2-1-1v-16.4h-7.7v4.1c0,4.8-0.6,8.3-1.8,10.2
		c-1.2,2-2.2,2.7-3.8,3.5c-0.5,0.2-0.9,0-1.2-0.5l-0.8-1.6c-0.2-0.5-0.1-0.8,0.4-1.1c1.2-0.6,1.6-0.9,2.5-2.3s1.3-4.2,1.3-8.4v-6.2
		c0-0.8,0.2-1,1-1H204.1z"/>
	<path d="M217.5,109.5c6,0,8.3,3.1,8.3,8.1v10.4c0,1.4-0.3,1.8-1.4,2.3c-1.6,0.7-3.9,1-6.9,1c-3.3,0-5.6-0.5-6.9-1.6
		c-1.2-1-1.9-2.6-1.9-4.8c0-4.6,2.5-6.3,8.9-6.3c1.4,0,3,0.1,4.6,0.3v-1.5c0-3.1-1.2-4.8-4.8-4.8c-2.3,0-4,0.8-5,2.4
		c-0.5,0.6-0.6,0.8-1.3,0.5l-1.2-0.6c-0.7-0.3-0.8-0.7-0.5-1.4C210.8,110.9,213.5,109.5,217.5,109.5z M222.1,122
		c-2.1-0.2-3.8-0.3-5-0.3c-3.7,0-4.9,1-4.9,3.4c0,2.3,1.1,3.4,4.8,3.4c2,0,3.5-0.2,4.4-0.5c0.4-0.2,0.6-0.4,0.6-0.9V122z"/>
	<path d="M233,110.1c0.8,0,1,0.2,1,1v9.8c0,1.8-0.2,3.5-0.6,5.2h0.1c0.6-1.2,1.3-2.4,2.2-3.6l8.7-11.8c0.2-0.3,0.5-0.5,0.9-0.5h1.7
		c0.8,0,1,0.2,1,1v18.7c0,0.8-0.2,1-1,1h-1.7c-0.8,0-1-0.2-1-1v-9.6c0-1.5,0.2-3.2,0.6-5.3h-0.1c-0.6,1.2-1.3,2.4-2.2,3.7l-8.6,11.7
		c-0.2,0.3-0.6,0.5-1,0.5h-1.7c-0.6,0-1-0.3-1-1v-18.7c0-0.8,0.2-1,1-1H233z M239.3,107.3c-3.2,0-5.2-1.4-6.1-4.2
		c-0.1-0.4,0-0.8,0.4-0.9l1.2-0.5c0.5-0.1,0.8,0,1,0.3c0.5,1.8,1.6,2.6,3.4,2.6s3-0.9,3.5-2.6c0.2-0.4,0.4-0.5,0.8-0.4l1.4,0.5
		c0.4,0.2,0.6,0.5,0.4,0.9C244.5,105.9,242.5,107.3,239.3,107.3z"/>
	<path d="M269.2,110.1c0.7,0,1,0.2,1,1v18.7c0,0.8-0.3,1-1,1h-1.7c-0.7,0-1-0.2-1-1v-7.9h-10.1v7.9c0,0.8-0.2,1-1,1h-1.7
		c-0.6,0-1-0.3-1-1v-18.7c0-0.8,0.2-1,1-1h1.7c0.8,0,1,0.2,1,1v7.5h10.1v-7.5c0-0.8,0.3-1,1-1H269.2z"/>
	<path d="M285.9,118.5c0.8,0,1.1,0.2,1.1,1v1.4c0,0.8-0.3,1-1.1,1h-9.8c-0.8,0-1-0.2-1-1v-1.4c0-0.8,0.2-1,1-1H285.9z"/>
	<path d="M316.5,110.1c0.8,0,1,0.2,1,1v18.7c0,0.8-0.2,1-1,1h-23.8c-0.8,0-1-0.2-1-1v-18.7c0-0.6,0.3-1,1-1h1.7c0.8,0,1,0.2,1,1
		v16.4h7.4v-16.4c0-0.8,0.2-1,1-1h1.7c0.8,0,1,0.2,1,1v16.4h7.5v-16.4c0-0.8,0.2-1,0.9-1H316.5z"/>
	<path d="M339.9,129.7c0.5,0.8,0.3,1.1-0.6,1.1h-1.6c-1.1,0-1.3-0.1-1.6-0.9l-2.8-5.8c-0.8-1.6-1.7-2.2-3.6-2.2h-3.6v7.9
		c0,0.8-0.2,1-1,1h-1.6c-0.8,0-1-0.2-1-1v-18.7c0-0.8,0.2-1,1-1h1.6c0.8,0,1,0.2,1,1v7.5h3.2h0.4l6-7.7c0.5-0.7,0.7-0.7,1.9-0.7h1.5
		c1,0,1.2,0.4,0.6,1.1l-6.4,8c1.3,0.5,2.4,1.6,3.2,3.3L339.9,129.7z"/>
	<path d="M342.4,117.2c0-4.8,3.4-7.7,9-7.7c5.7,0,9,2.9,9,7.7v6.5c0,4.8-3.3,7.6-9,7.6c-5.6,0-9-2.9-9-7.6V117.2z M356.8,117.2
		c0-2.8-2-4.4-5.4-4.4c-3.4,0-5.4,1.6-5.4,4.4v6.6c0,2.8,2,4.4,5.4,4.4c3.4,0,5.4-1.6,5.4-4.4V117.2z"/>
	<path d="M380.5,110.1c0.7,0,1,0.2,1,1v18.7c0,0.8-0.3,1-1,1h-1.6c-0.8,0-1-0.2-1-1v-16.4h-7.7v4.1c0,4.8-0.6,8.3-1.8,10.2
		c-1.2,2-2.2,2.7-3.8,3.5c-0.5,0.2-0.9,0-1.2-0.5l-0.8-1.6c-0.2-0.5-0.1-0.8,0.4-1.1c1.2-0.6,1.6-0.9,2.5-2.3s1.3-4.2,1.3-8.4v-6.2
		c0-0.8,0.2-1,1-1H380.5z"/>
	<path d="M393.9,109.5c6,0,8.3,3.1,8.3,8.1v10.4c0,1.4-0.3,1.8-1.4,2.3c-1.6,0.7-3.9,1-6.9,1c-3.3,0-5.6-0.5-6.9-1.6
		c-1.2-1-1.9-2.6-1.9-4.8c0-4.6,2.5-6.3,8.9-6.3c1.4,0,3,0.1,4.6,0.3v-1.5c0-3.1-1.2-4.8-4.8-4.8c-2.3,0-4,0.8-5,2.4
		c-0.5,0.6-0.6,0.8-1.3,0.5l-1.2-0.6c-0.7-0.3-0.8-0.7-0.5-1.4C387.2,110.9,389.9,109.5,393.9,109.5z M398.6,122
		c-2.1-0.2-3.8-0.3-5-0.3c-3.7,0-4.9,1-4.9,3.4c0,2.3,1.1,3.4,4.8,3.4c2,0,3.5-0.2,4.4-0.5c0.4-0.2,0.6-0.4,0.6-0.9V122z"/>
</g>
<circle class="st3" cx="517.7" cy="81.3" r="50.4"/>
<g>
	<path class="st4" d="M531.7,98v3.7h-28V98h12V67.2c-3.5,3.7-7.2,6.6-11,8.6v-5c5.3-2.8,9.3-6,12.2-9.8h3.6V98H531.7z"/>
</g>
</svg>
