<?xml version="1.0" encoding="utf-8"?>
<!-- Generator: Adobe Illustrator 26.0.2, SVG Export Plug-In . SVG Version: 6.00 Build 0)  -->
<svg version="1.1" id="svg-8a79866a-2641-4ce6-ab96-e83808c3204d"
	 xmlns="http://www.w3.org/2000/svg" xmlns:xlink="http://www.w3.org/1999/xlink" x="0px" y="0px" viewBox="0 0 145.6 34.6"
	 style="enable-background:new 0 0 145.6 34.6;" xml:space="preserve">
<style type="text/css">
	.st0{fill:none;stroke:#222222;stroke-width:0.7929;stroke-miterlimit:10;}
	.st1{fill:none;stroke:#222222;stroke-width:1.5858;stroke-miterlimit:10;}
	.st2{fill:none;stroke:#000000;stroke-width:1.6375;stroke-miterlimit:10;}
</style>
<path class="st0" d="M8.7,28.7h6.5c0.4,0,0.8-0.4,0.8-0.8s-0.4-0.8-0.8-0.8H8.7c-0.4,0-0.8,0.4-0.8,0.8C7.9,28.2,8.3,28.7,8.7,28.7"
	/>
<path class="st1" d="M4.3,2.6C3,2.8,2.1,3.9,2.2,5.1v24.4C2.1,30.7,3,31.8,4.3,32h15.5c1.3-0.1,2.1-1.3,2.1-2.5V5.1
	c0.1-1.3-0.8-2.3-2.1-2.5H4.3z"/>
<path d="M38.3,4.9c0.4,0,0.5,0.1,0.5,0.5v0.8c0,0.4-0.1,0.5-0.5,0.5h-3.8v11.9c0,0.4-0.1,0.5-0.5,0.5h-0.9c-0.4,0-0.5-0.1-0.5-0.5
	V6.7h-3.8c-0.4,0-0.5-0.1-0.5-0.5V5.4c0-0.4,0.1-0.5,0.5-0.5C28.8,4.9,38.3,4.9,38.3,4.9z"/>
<path d="M49.1,4.9c0.4,0,0.5,0.1,0.5,0.5v0.8c0,0.4-0.1,0.5-0.5,0.5h-6.6V11h5.7c0.4,0,0.5,0.1,0.5,0.5v0.8c0,0.4-0.1,0.5-0.5,0.5
	h-5.7v4.5h6.9c0.4,0,0.5,0.1,0.5,0.5v0.8c0,0.4-0.1,0.5-0.5,0.5h-8.3c-0.4,0-0.5-0.1-0.5-0.5V5.4c0-0.4,0.1-0.5,0.5-0.5H49.1z"/>
<path d="M62.1,4.9c0.4,0,0.5,0.1,0.5,0.5v13.2c0,0.4-0.1,0.5-0.5,0.5h-0.9c-0.4,0-0.5-0.1-0.5-0.5V6.7h-5.1v3.1
	c0.1,3.7-0.5,5.9-1.1,7.2c-0.4,0.9-1.1,1.5-1.6,1.8c-0.2,0.2-0.6,0.3-0.9,0.5c-0.3,0.1-0.6,0.1-0.7-0.2l-0.4-0.8
	c-0.2-0.3-0.1-0.6,0.3-0.7c0.6-0.3,0.9-0.4,1.4-1.2c0.3-0.3,0.4-0.8,0.6-1.3c0.3-1,0.5-2.9,0.5-5.3V5.4c0-0.4,0.1-0.5,0.5-0.5
	C54.2,4.9,62.1,4.9,62.1,4.9z"/>
<path d="M73.9,4.9c0.4,0,0.5,0.1,0.5,0.5v0.8c0,0.4-0.1,0.5-0.5,0.5h-6.6V11H73c0.4,0,0.5,0.1,0.5,0.5v0.8c0,0.4-0.1,0.5-0.5,0.5
	h-5.7v4.5h6.9c0.4,0,0.5,0.1,0.5,0.5v0.8c0,0.4-0.1,0.5-0.5,0.5h-8.3c-0.4,0-0.5-0.1-0.5-0.5V5.4c0-0.4,0.1-0.5,0.5-0.5H73.9z"/>
<path d="M83.9,4.4c0.4,0,0.5,0.1,0.5,0.5v1.2h1.2c3.5,0,5.4,1.9,5.4,5.1v1.5c0,3.2-1.9,5.1-5.4,5.1h-1.2V19c0,0.4-0.1,0.5-0.5,0.5
	H83c-0.4,0-0.5-0.1-0.5-0.5v-1.2h-1.1c-3.5,0-5.4-1.9-5.4-5.1v-1.5c0-3.2,1.9-5.1,5.4-5.1h1.2V4.9c0-0.4,0.1-0.5,0.5-0.5
	C83.1,4.4,83.9,4.4,83.9,4.4z M81.4,7.9c-2.3,0-3.5,1.2-3.5,3.3v1.7c0,2.1,1.2,3.3,3.5,3.3h1.2V8L81.4,7.9L81.4,7.9z M89.1,11.1
	c0-2.1-1.2-3.3-3.5-3.3h-1.2V16h1.2c2.3,0,3.5-1.2,3.5-3.3V11.1z"/>
<path d="M92.8,9.7c0-3.2,2-5.1,5.6-5.1s5.6,1.9,5.6,5.1v4.6c0,3.2-2,5.1-5.6,5.1s-5.6-1.9-5.6-5.1V9.7z M102.1,9.7
	c0-2.1-1.3-3.3-3.7-3.3c-2.3,0-3.7,1.2-3.7,3.3v4.6c0,2.1,1.3,3.3,3.7,3.3c2.3,0,3.7-1.2,3.7-3.3V9.7z"/>
<path d="M116.8,4.9c0.4,0,0.5,0.1,0.5,0.5v13.2c0,0.4-0.1,0.5-0.5,0.5h-0.9c-0.4,0-0.5-0.1-0.5-0.5v-5.8h-6.8v5.8
	c0,0.4-0.1,0.5-0.5,0.5h-0.9c-0.4,0-0.5-0.1-0.5-0.5V5.4c0-0.4,0.1-0.5,0.5-0.5h0.9c0.4,0,0.5,0.1,0.5,0.5V11h6.8V5.4
	c0-0.4,0.1-0.5,0.5-0.5H116.8z"/>
<path d="M134.8,4.5c0.4,0,0.5,0.1,0.5,0.5v13.2c0,0.4-0.1,0.5-0.5,0.5h-0.9c-0.4,0-0.5-0.1-0.5-0.5V6.9l-3.6,2
	c-0.3,0.2-0.6,0.2-0.8-0.2L128.6,8c-0.2-0.3-0.1-0.5,0.2-0.7l4.4-2.5c0.2-0.1,0.5-0.2,0.7-0.2h0.9V4.5z"/>
<g>
	<path d="M45.8,27c0,2.1-1.4,3-2.8,3c-1.5,0-2.7-1.1-2.7-2.9c0-1.9,1.2-3,2.8-3C44.7,24.2,45.8,25.3,45.8,27z M41.4,27.1
		c0,1.2,0.7,2.1,1.7,2.1c1,0,1.7-0.9,1.7-2.2c0-0.9-0.5-2.1-1.7-2.1C41.9,24.9,41.4,26,41.4,27.1z"/>
	<path d="M48.1,24.3v2.2h2.7v-2.2h1v5.6h-1v-2.5h-2.7v2.5h-1v-5.6H48.1z"/>
	<path d="M57.6,24.3v5.6h-1v-4.8h-1.9v1.5c0,1.6-0.1,2.6-0.9,3.1c-0.3,0.2-0.6,0.3-1.1,0.3l-0.1-0.8c0.2,0,0.4-0.1,0.6-0.2
		c0.5-0.4,0.6-1.2,0.6-2.4v-2.2H57.6z"/>
	<path d="M62.4,29.9l-0.1-0.7h0C62,29.6,61.4,30,60.6,30c-1.1,0-1.7-0.8-1.7-1.6c0-1.3,1.2-2.1,3.4-2.1v-0.1c0-0.5-0.1-1.3-1.3-1.3
		c-0.5,0-1.1,0.2-1.5,0.4l-0.2-0.7c0.5-0.3,1.1-0.5,1.8-0.5c1.7,0,2.1,1.2,2.1,2.3v2.1c0,0.5,0,1,0.1,1.3H62.4z M62.2,27
		c-1.1,0-2.4,0.2-2.4,1.3c0,0.7,0.4,1,1,1c0.7,0,1.2-0.5,1.3-0.9c0-0.1,0.1-0.2,0.1-0.3V27z"/>
	<path d="M65.8,24.3v2.4c0,0.9,0,1.4-0.1,2.2l0,0c0.3-0.7,0.5-1.1,0.9-1.7l1.7-2.9h1.2v5.6h-1v-2.4c0-0.9,0-1.4,0.1-2.3h0
		c-0.4,0.7-0.6,1.2-0.9,1.7c-0.5,0.9-1.1,1.9-1.7,2.9h-1.2v-5.6H65.8z M66.5,22c0,0.5,0.3,0.9,0.7,0.9c0.5,0,0.7-0.4,0.8-0.9h0.7
		c0,0.9-0.6,1.4-1.5,1.4c-1,0-1.4-0.6-1.5-1.4H66.5z"/>
	<path d="M72.2,24.3v2.2h2.7v-2.2h1v5.6h-1v-2.5h-2.7v2.5h-1v-5.6H72.2z"/>
	<path d="M79.9,26.4v0.7h-2.8v-0.7H79.9z"/>
	<path d="M82.1,24.3v4.8H84v-4.8h1v4.8H87v-4.8h1v5.6h-6.9v-5.6H82.1z"/>
	<path d="M90.6,24.3v2.4h0.2l2.1-2.4h1.2l-2.4,2.5c0.9,0.1,1.4,0.7,1.9,1.7c0.1,0.4,0.3,0.9,0.6,1.4h-1.1c-0.1-0.2-0.3-0.7-0.5-1.1
		c-0.4-0.9-0.9-1.3-1.8-1.3h-0.2v2.5h-1v-5.6H90.6z"/>
	<path d="M100.1,27c0,2.1-1.4,3-2.8,3c-1.5,0-2.7-1.1-2.7-2.9c0-1.9,1.2-3,2.8-3C99,24.2,100.1,25.3,100.1,27z M95.7,27.1
		c0,1.2,0.7,2.1,1.7,2.1c1,0,1.7-0.9,1.7-2.2c0-0.9-0.5-2.1-1.7-2.1C96.2,24.9,95.7,26,95.7,27.1z"/>
	<path d="M105.6,24.3v5.6h-1v-4.8h-1.9v1.5c0,1.6-0.1,2.6-0.9,3.1c-0.3,0.2-0.6,0.3-1.1,0.3l-0.1-0.8c0.2,0,0.4-0.1,0.6-0.2
		c0.5-0.4,0.6-1.2,0.6-2.4v-2.2H105.6z"/>
	<path d="M110.4,29.9l-0.1-0.7h0c-0.3,0.4-0.9,0.8-1.7,0.8c-1.1,0-1.7-0.8-1.7-1.6c0-1.3,1.2-2.1,3.4-2.1v-0.1
		c0-0.5-0.1-1.3-1.3-1.3c-0.5,0-1.1,0.2-1.5,0.4l-0.2-0.7c0.5-0.3,1.1-0.5,1.8-0.5c1.7,0,2.1,1.2,2.1,2.3v2.1c0,0.5,0,1,0.1,1.3
		H110.4z M110.2,27c-1.1,0-2.4,0.2-2.4,1.3c0,0.7,0.4,1,1,1c0.7,0,1.2-0.5,1.3-0.9c0-0.1,0.1-0.2,0.1-0.3V27z"/>
</g>
<circle class="st2" cx="133.7" cy="11.6" r="9.7"/>
</svg>
